<?xml version="1.0" standalone="no"?>
<!DOCTYPE svg PUBLIC "-//W3C//DTD SVG 20010904//EN"
 "http://www.w3.org/TR/2001/REC-SVG-20010904/DTD/svg10.dtd">
<svg version="1.0" xmlns="http://www.w3.org/2000/svg"
 width="32.000000pt" height="32.000000pt" viewBox="0 0 32.000000 32.000000"
 preserveAspectRatio="xMidYMid meet">

<g transform="translate(0.000000,32.000000) scale(0.100000,-0.100000)"
fill="#000000" stroke="none">
<path d="M0 160 l0 -160 160 0 160 0 0 65 c0 36 -4 65 -10 65 -5 0 -20 -11
-34 -25 -33 -33 -70 -41 -100 -21 -22 14 -27 14 -54 0 -22 -10 -37 -12 -55 -5
-28 11 -52 45 -42 61 10 16 23 12 30 -9 13 -43 65 -35 65 10 0 29 -8 34 -68
41 l-22 3 20 33 c16 26 26 32 56 32 43 0 43 -22 0 -30 l-28 -5 31 -12 c26 -9
31 -9 31 3 0 8 16 22 35 31 29 14 42 15 65 6 l30 -11 0 44 0 44 -135 0 -135 0
0 -160z"/>
<path d="M167 190 c-19 -28 -10 -65 20 -79 46 -21 92 25 70 70 -17 33 -69 39
-90 9z m70 -6 c12 -12 14 -20 6 -33 -14 -22 -47 -25 -63 -6 -11 13 -10 19 5
35 22 24 32 25 52 4z"/>
</g>
</svg>
